<?xml version="1.0" encoding="utf-8"?>
<!-- Generator: Adobe Illustrator 22.1.0, SVG Export Plug-In . SVG Version: 6.00 Build 0)  -->
<svg version="1.1" id="Layer_1" xmlns="http://www.w3.org/2000/svg" xmlns:xlink="http://www.w3.org/1999/xlink" x="0px" y="0px"
	 viewBox="0 0 32 32" style="enable-background:new 0 0 32 32;" xml:space="preserve">
<path d="M28.7,7.3h-2V7.2c0-1.9-1.5-3.4-3.4-3.4c-1.9,0-3.4,1.5-3.4,3.4v0.1h-7.3V7.2c0-1.9-1.5-3.4-3.4-3.4c-1.9,0-3.4,1.5-3.4,3.4
	v0.1H3.5C2,7.3,0.8,8.5,0.8,10v15.3C0.8,26.8,2,28,3.5,28h25.2c1.5,0,2.7-1.2,2.7-2.7V10C31.4,8.5,30.2,7.3,28.7,7.3z M28.6,11.3
	v6.2h-5.4v-4.3c0,0,0.1,0,0.1,0c1.3,0,2.5-0.8,3.1-1.9H28.6z M16.8,11.3h3.5c0.4,0.7,1,1.3,1.7,1.6v4.6h-5.2V11.3z M22,6.1h2.6v1.2
	v3h-1.4H22v-2v-1V6.1z M15.6,11.3v6.2h-5.2v-4.6c0.8-0.3,1.5-0.9,1.9-1.7H15.6z M7.8,6.1h2.6v1.2v3h-0.1H9.1H7.8v-3V6.1z M3.6,11.3
	h2.5c0.6,1.1,1.7,1.9,3,1.9v4.3H3.6V11.3z M3.6,18.7h5.5v6H3.6V18.7z M10.3,18.7h5.2v6h-5.2V18.7z M16.8,18.7H22v6h-5.2V18.7z
	 M23.3,18.7h5.4v3.1h-2.8v2.9h-2.6V18.7z"/>
</svg>
