<?xml version="1.0" encoding="utf-8"?>
<!-- Generator: Adobe Illustrator 22.1.0, SVG Export Plug-In . SVG Version: 6.00 Build 0)  -->
<svg version="1.1" id="Layer_1" xmlns="http://www.w3.org/2000/svg" xmlns:xlink="http://www.w3.org/1999/xlink" x="0px" y="0px"
	 viewBox="0 0 32 32" style="enable-background:new 0 0 32 32;" xml:space="preserve">
<path d="M30.8,21.8l-1-12.4c-0.1-0.1-0.3-0.1-0.4-0.1h-0.3h-0.7h-0.6c-0.2,0-0.3,0.1-0.4,0.1c-0.2,0.1-0.3,0.3-0.3,0.5l0.4,6.6
	c0.1,0.8-1.8,1-2.4,1h-6v-2.1h4.6c0.9,0,1.6-0.6,1.6-1.3l-1-12.5c0-0.7-0.7-1.2-1.6-1.2H9.2C8.4,0.5,7.7,1,7.6,1.7l-1,12.5
	c-0.1,0.7,0.7,1.3,1.6,1.3h4.6v2.1h-6c-0.6,0-2.6-0.1-2.4-1L4.9,10c0-0.2-0.1-0.4-0.3-0.5C4.5,9.3,4.4,9.3,4.2,9.3H3.9h-1H2.6
	c-0.1,0-0.3,0-0.4,0.1l-1,12.7c-0.1,1.1,1.3,2,2.7,2h2.3L6,30.2c0,0.6,0.5,1.2,1.1,1.2L9,31.5c0.6,0,1.2-0.5,1.2-1.1l0.3-6.2h0.2H16
	h5.3h0.2l0.3,6.1c0,0.6,0.6,1.1,1.2,1.1l1.9-0.1c0.6,0,1.1-0.6,1.1-1.2l-0.3-6h2.3C29.5,24.2,30.9,23.2,30.8,21.8z M2.6,22.3
	L2.6,22.3C2.6,22.3,2.6,22.3,2.6,22.3C2.6,22.3,2.6,22.3,2.6,22.3z"/>
</svg>
